<?xml version="1.0" encoding="UTF-8" standalone="no"?>
<svg
   version="1.1"
   width="776"
   height="766"
   id="svg23"
   sodipodi:docname="figure2-2.svg"
   inkscape:version="1.4 (e7c3feb100, 2024-10-09)"
   xmlns:inkscape="http://www.inkscape.org/namespaces/inkscape"
   xmlns:sodipodi="http://sodipodi.sourceforge.net/DTD/sodipodi-0.dtd"
   xmlns="http://www.w3.org/2000/svg"
   xmlns:svg="http://www.w3.org/2000/svg">
  <sodipodi:namedview
     id="namedview23"
     pagecolor="#ffffff"
     bordercolor="#000000"
     borderopacity="0.25"
     inkscape:showpageshadow="2"
     inkscape:pageopacity="0.0"
     inkscape:pagecheckerboard="0"
     inkscape:deskcolor="#d1d1d1"
     inkscape:zoom="1.0456919"
     inkscape:cx="388.25968"
     inkscape:cy="383"
     inkscape:window-width="1920"
     inkscape:window-height="1003"
     inkscape:window-x="0"
     inkscape:window-y="0"
     inkscape:window-maximized="1"
     inkscape:current-layer="svg23" />
  <defs
     id="defs1">
    <clipPath
       id="ViexDHiKUVJi">
      <path
         fill="none"
         stroke="none"
         d=" M 0 0 L 776 0 L 776 766 L 0 766 L 0 0 Z"
         id="path1" />
    </clipPath>
  </defs>
  <g
     transform="scale(1,1)"
     clip-path="url(#ViexDHiKUVJi)"
     id="g23">
    <g
       transform="translate(-301,-61)"
       id="g22">
      <path
         fill="none"
         stroke="rgb(0,0,0)"
         paint-order="fill stroke markers"
         d=" M 1046.4510464739421 447.1742070930944 C 1046.4510464739421 643.9948228852312 886.8964122660784 803.549457093095 690.0757964739418 803.549457093095 C 493.25518068180514 803.549457093095 333.7005464739414 643.9948228852312 333.7005464739414 447.1742070930944 C 333.7005464739414 250.35359130095765 493.25518068180514 90.7989570930938 690.0757964739418 90.7989570930938 C 886.8964122660784 90.7989570930938 1046.4510464739421 250.35359130095765 1046.4510464739421 447.1742070930944 Z"
         stroke-opacity="1"
         stroke-linecap="round"
         stroke-linejoin="round"
         stroke-miterlimit="10"
         stroke-width="1.5"
         id="path2" />
      <g
         transform="scale(19,19)"
         id="g5">
        <g
           transform="translate(23.842105263157894,7.9987894736842104)"
           id="g3">
          <path
             fill="rgb(0,0,0)"
             stroke="none"
             paint-order="stroke fill markers"
             d=" M 0.76 -0.6950000000000001 L 0.6970000000000001 -0.44 Q 0.6920000000000001 -0.422 0.687 -0.421 L 0.686 -0.42 L 0.679 -0.42 Q 0.664 -0.42 0.664 -0.43 L 0.667 -0.47900000000000004 L 0.667 -0.481 Q 0.667 -0.605 0.589 -0.652 L 0.588 -0.653 Q 0.553 -0.674 0.506 -0.674 Q 0.4 -0.674 0.305 -0.595 Q 0.281 -0.5760000000000001 0.262 -0.553 Q 0.167 -0.442 0.145 -0.271 Q 0.14100000000000001 -0.24 0.14100000000000001 -0.217 Q 0.14100000000000001 -0.077 0.247 -0.028 Q 0.28800000000000003 -0.009000000000000001 0.337 -0.009000000000000001 Q 0.431 -0.009000000000000001 0.521 -0.082 Q 0.591 -0.14100000000000001 0.622 -0.24 Q 0.624 -0.25 0.635 -0.25 Q 0.647 -0.25 0.647 -0.24 Q 0.647 -0.222 0.624 -0.176 Q 0.593 -0.113 0.537 -0.064 Q 0.438 0.022 0.321 0.022 Q 0.193 0.022 0.116 -0.066 Q 0.05 -0.14100000000000001 0.05 -0.252 Q 0.05 -0.401 0.159 -0.531 Q 0.26 -0.652 0.398 -0.6910000000000001 Q 0.449 -0.705 0.498 -0.705 Q 0.607 -0.705 0.664 -0.616 L 0.734 -0.6930000000000001 Q 0.746 -0.705 0.749 -0.705 Q 0.76 -0.705 0.76 -0.6950000000000001 Z"
             id="path3" />
        </g>
        <g
           transform="translate(24.557105263157894,8.14878947368421) scale(0.7,0.7)"
           id="g4">
          <path
             fill="rgb(0,0,0)"
             stroke="none"
             paint-order="stroke fill markers"
             d=" M 0.294 -0.64 L 0.294 -0.079 Q 0.294 -0.049 0.306 -0.041 Q 0.323 -0.031 0.387 -0.031 L 0.419 -0.031 L 0.419 0 Q 0.384 -0.003 0.257 -0.003 Q 0.13 -0.003 0.095 0 L 0.095 -0.031 L 0.127 -0.031 Q 0.20400000000000001 -0.031 0.215 -0.049 L 0.216 -0.05 Q 0.22 -0.058 0.22 -0.079 L 0.22 -0.597 Q 0.168 -0.5710000000000001 0.089 -0.5710000000000001 L 0.089 -0.602 Q 0.209 -0.602 0.271 -0.666 Q 0.29 -0.666 0.293 -0.659 L 0.293 -0.659 L 0.293 -0.658 Q 0.294 -0.655 0.294 -0.64 Z"
             id="path4" />
        </g>
      </g>
      <path
         fill="none"
         stroke="rgb(0,0,0)"
         paint-order="fill stroke markers"
         d=" M 943.8410395486085 455.2110062680136 C 943.8410395486085 547.8324725231367 868.7565058037314 622.9170062680139 776.1350395486083 622.9170062680139 C 683.5135732934853 622.9170062680139 608.4290395486082 547.8324725231367 608.4290395486082 455.2110062680136 C 608.4290395486082 362.5895400128904 683.5135732934853 287.5050062680133 776.1350395486083 287.5050062680133 C 868.7565058037314 287.5050062680133 943.8410395486085 362.5895400128904 943.8410395486085 455.2110062680136 Z"
         stroke-opacity="1"
         stroke-linecap="round"
         stroke-linejoin="round"
         stroke-miterlimit="10"
         stroke-width="1.5"
         id="path5" />
      <g
         transform="scale(19,19)"
         id="g8">
        <g
           transform="translate(36.21052631578947,17.525105263157894)"
           id="g6">
          <path
             fill="rgb(0,0,0)"
             stroke="none"
             paint-order="stroke fill markers"
             d=" M 0.76 -0.6950000000000001 L 0.6970000000000001 -0.44 Q 0.6920000000000001 -0.422 0.687 -0.421 L 0.686 -0.42 L 0.679 -0.42 Q 0.664 -0.42 0.664 -0.43 L 0.667 -0.47900000000000004 L 0.667 -0.481 Q 0.667 -0.605 0.589 -0.652 L 0.588 -0.653 Q 0.553 -0.674 0.506 -0.674 Q 0.4 -0.674 0.305 -0.595 Q 0.281 -0.5760000000000001 0.262 -0.553 Q 0.167 -0.442 0.145 -0.271 Q 0.14100000000000001 -0.24 0.14100000000000001 -0.217 Q 0.14100000000000001 -0.077 0.247 -0.028 Q 0.28800000000000003 -0.009000000000000001 0.337 -0.009000000000000001 Q 0.431 -0.009000000000000001 0.521 -0.082 Q 0.591 -0.14100000000000001 0.622 -0.24 Q 0.624 -0.25 0.635 -0.25 Q 0.647 -0.25 0.647 -0.24 Q 0.647 -0.222 0.624 -0.176 Q 0.593 -0.113 0.537 -0.064 Q 0.438 0.022 0.321 0.022 Q 0.193 0.022 0.116 -0.066 Q 0.05 -0.14100000000000001 0.05 -0.252 Q 0.05 -0.401 0.159 -0.531 Q 0.26 -0.652 0.398 -0.6910000000000001 Q 0.449 -0.705 0.498 -0.705 Q 0.607 -0.705 0.664 -0.616 L 0.734 -0.6930000000000001 Q 0.746 -0.705 0.749 -0.705 Q 0.76 -0.705 0.76 -0.6950000000000001 Z"
             id="path6" />
        </g>
        <g
           transform="translate(36.925526315789476,17.675105263157892) scale(0.7,0.7)"
           id="g7">
          <path
             fill="rgb(0,0,0)"
             stroke="none"
             paint-order="stroke fill markers"
             d=" M 0.449 -0.17400000000000002 L 0.449 -0.17400000000000002 L 0.421 0 L 0.05 0 Q 0.05 -0.025 0.056 -0.032 L 0.061 -0.037 L 0.253 -0.251 Q 0.358 -0.369 0.358 -0.47200000000000003 Q 0.358 -0.561 0.304 -0.607 L 0.303 -0.608 L 0.302 -0.608 Q 0.27 -0.635 0.224 -0.635 Q 0.152 -0.635 0.109 -0.5730000000000001 Q 0.097 -0.555 0.089 -0.533 Q 0.092 -0.534 0.10200000000000001 -0.534 Q 0.14200000000000002 -0.534 0.153 -0.498 L 0.153 -0.497 Q 0.155 -0.49 0.155 -0.482 Q 0.155 -0.442 0.117 -0.431 Q 0.109 -0.429 0.10300000000000001 -0.429 Q 0.066 -0.429 0.054 -0.46 Q 0.05 -0.47100000000000003 0.05 -0.485 Q 0.05 -0.562 0.109 -0.617 Q 0.162 -0.666 0.23700000000000002 -0.666 Q 0.34700000000000003 -0.666 0.40800000000000003 -0.592 Q 0.443 -0.549 0.448 -0.49 Q 0.449 -0.481 0.449 -0.47200000000000003 Q 0.449 -0.399 0.394 -0.333 Q 0.365 -0.299 0.304 -0.243 L 0.243 -0.189 L 0.233 -0.18 L 0.127 -0.077 L 0.307 -0.077 Q 0.395 -0.077 0.402 -0.085 Q 0.41200000000000003 -0.099 0.424 -0.17400000000000002 L 0.449 -0.17400000000000002 Z"
             id="path7" />
        </g>
      </g>
      <path
         fill="none"
         stroke="rgb(0,0,0)"
         paint-order="fill stroke markers"
         d=" M -5 250.75226462830224 L 1280.425876282711 896"
         stroke-opacity="1"
         stroke-linecap="round"
         stroke-linejoin="round"
         stroke-miterlimit="10"
         stroke-width="1.5"
         id="path8" />
      <path
         fill="none"
         stroke="rgb(0,0,0)"
         paint-order="fill stroke markers"
         d=" M -5 530.6622443512463 L 1476 53.553779637024206"
         stroke-opacity="1"
         stroke-linecap="round"
         stroke-linejoin="round"
         stroke-miterlimit="10"
         stroke-width="1.5"
         id="path9" />
      <path
         fill="none"
         stroke="rgb(0,0,0)"
         paint-order="fill stroke markers"
         d=" M 963.532382522701 218.64671561970437 L 923.2293606942251 716.6973680717774"
         stroke-opacity="1"
         stroke-linecap="round"
         stroke-linejoin="round"
         stroke-miterlimit="10"
         stroke-width="1.5"
         id="path10" />
      <path
         fill="rgb(0,0,0)"
         stroke="none"
         paint-order="stroke fill markers"
         d=" M 693.0757964739418 447.1742070930944 C 693.0757964739418 448.8310613425868 691.7326507234342 450.1742070930944 690.0757964739418 450.1742070930944 C 688.4189422244493 450.1742070930944 687.0757964739418 448.8310613425868 687.0757964739418 447.1742070930944 C 687.0757964739418 445.51735284360205 688.4189422244493 444.1742070930944 690.0757964739418 444.1742070930944 C 691.7326507234342 444.1742070930944 693.0757964739418 445.51735284360205 693.0757964739418 447.1742070930944 Z"
         fill-opacity="1"
         id="path11" />
      <g
         transform="scale(19,19)"
         id="g13">
        <g
           transform="translate(36.578947368421055,23.209315789473685)"
           id="g12">
          <path
             fill="rgb(0,0,0)"
             stroke="none"
             paint-order="stroke fill markers"
             d=" M 0.721 -0.339 Q 0.721 -0.19 0.624 -0.084 Q 0.532 0.016 0.401 0.022 L 0.388 0.022 Q 0.259 0.022 0.163 -0.074 Q 0.062 -0.17400000000000002 0.056 -0.323 L 0.056 -0.339 Q 0.056 -0.491 0.154 -0.598 Q 0.246 -0.6990000000000001 0.374 -0.705 L 0.388 -0.705 Q 0.519 -0.705 0.616 -0.606 Q 0.715 -0.504 0.721 -0.356 L 0.721 -0.339 M 0.389 -0.004 L 0.389 -0.004 Q 0.47200000000000003 -0.004 0.534 -0.075 Q 0.618 -0.17 0.618 -0.353 Q 0.618 -0.5630000000000001 0.498 -0.644 Q 0.446 -0.68 0.388 -0.68 Q 0.308 -0.68 0.245 -0.617 L 0.245 -0.616 Q 0.159 -0.528 0.159 -0.353 Q 0.159 -0.137 0.272 -0.047 Q 0.326 -0.004 0.389 -0.004 Z"
             id="path12" />
        </g>
      </g>
      <path
         fill="rgb(0,0,0)"
         stroke="none"
         paint-order="stroke fill markers"
         d=" M 779.1350395486083 455.2110062680136 C 779.1350395486083 456.86786051750596 777.7918937981008 458.2110062680136 776.1350395486083 458.2110062680136 C 774.4781852991159 458.2110062680136 773.1350395486083 456.86786051750596 773.1350395486083 455.2110062680136 C 773.1350395486083 453.5541520185212 774.4781852991159 452.2110062680136 776.1350395486083 452.2110062680136 C 777.7918937981008 452.2110062680136 779.1350395486083 453.5541520185212 779.1350395486083 455.2110062680136 Z"
         fill-opacity="1"
         id="path13" />
      <g
         transform="scale(19,19)"
         id="g15">
        <g
           transform="translate(41.26315789473684,23.73563157894737)"
           id="g14">
          <path
             fill="rgb(0,0,0)"
             stroke="none"
             paint-order="stroke fill markers"
             d=" M 0.374 -0.606 L 0.24 -0.073 Q 0.23600000000000002 -0.059000000000000004 0.23600000000000002 -0.05 Q 0.23600000000000002 -0.037 0.25 -0.034 L 0.251 -0.034 L 0.252 -0.034 Q 0.256 -0.033 0.261 -0.033 Q 0.281 -0.031 0.304 -0.031 Q 0.331 -0.031 0.333 -0.024 Q 0.334 -0.022 0.334 -0.019 Q 0.334 0 0.314 0 L 0.181 -0.003 L 0.18 -0.003 L 0.05 0 L 0.049 0 Q 0.034 0 0.034 -0.011 Q 0.034 -0.028 0.048 -0.03 Q 0.053 -0.031 0.066 -0.031 Q 0.133 -0.031 0.146 -0.048 Q 0.151 -0.055 0.157 -0.078 L 0.292 -0.617 Q 0.294 -0.626 0.294 -0.633 Q 0.294 -0.651 0.252 -0.652 L 0.251 -0.652 L 0.225 -0.652 Q 0.199 -0.652 0.197 -0.663 Q 0.197 -0.683 0.217 -0.683 L 0.34900000000000003 -0.68 L 0.35000000000000003 -0.68 L 0.481 -0.683 L 0.482 -0.683 Q 0.497 -0.683 0.497 -0.671 Q 0.497 -0.654 0.483 -0.653 Q 0.47800000000000004 -0.652 0.465 -0.652 Q 0.398 -0.652 0.385 -0.636 Q 0.38 -0.629 0.374 -0.606 Z"
             id="path14" />
        </g>
      </g>
      <path
         fill="rgb(0,0,0)"
         stroke="none"
         paint-order="stroke fill markers"
         d=" M 337.645109277601 421.24458288255596 C 337.645109277601 422.90143713204833 336.3019635270934 424.24458288255596 334.645109277601 424.24458288255596 C 332.98825502810865 424.24458288255596 331.645109277601 422.90143713204833 331.645109277601 421.24458288255596 C 331.645109277601 419.5877286330636 332.98825502810865 418.24458288255596 334.645109277601 418.24458288255596 C 336.3019635270934 418.24458288255596 337.645109277601 419.5877286330636 337.645109277601 421.24458288255596 Z"
         fill-opacity="1"
         id="path15" />
      <g
         transform="scale(19,19)"
         id="g17">
        <g
           transform="translate(17.263157894736842,21.156684210526315)"
           id="g16">
          <path
             fill="rgb(0,0,0)"
             stroke="none"
             paint-order="stroke fill markers"
             d=" M 0.398 -0.6960000000000001 L 0.614 -0.07100000000000001 Q 0.624 -0.042 0.646 -0.036000000000000004 Q 0.666 -0.031 0.6990000000000001 -0.031 L 0.717 -0.031 L 0.717 0 Q 0.654 -0.003 0.586 -0.003 Q 0.47800000000000004 -0.003 0.442 0 L 0.442 -0.031 Q 0.525 -0.031 0.525 -0.061 Q 0.525 -0.063 0.522 -0.075 L 0.46900000000000003 -0.228 L 0.222 -0.228 L 0.176 -0.097 Q 0.17400000000000002 -0.093 0.17400000000000002 -0.082 Q 0.17400000000000002 -0.049 0.213 -0.036000000000000004 L 0.214 -0.036000000000000004 Q 0.229 -0.031 0.249 -0.031 L 0.249 0 Q 0.153 -0.003 0.134 -0.003 Q 0.101 -0.003 0.032 0 L 0.032 -0.031 Q 0.117 -0.033 0.14100000000000001 -0.091 Q 0.14300000000000002 -0.095 0.14400000000000002 -0.098 L 0.35100000000000003 -0.6960000000000001 Q 0.357 -0.713 0.367 -0.715 Q 0.37 -0.716 0.375 -0.716 Q 0.39 -0.716 0.396 -0.7020000000000001 L 0.396 -0.7010000000000001 L 0.396 -0.7000000000000001 L 0.398 -0.6960000000000001 M 0.34500000000000003 -0.584 L 0.233 -0.259 L 0.458 -0.259 L 0.34500000000000003 -0.584 Z"
             id="path16" />
        </g>
      </g>
      <path
         fill="rgb(0,0,0)"
         stroke="none"
         paint-order="stroke fill markers"
         d=" M 966.532382522701 218.64671561970437 C 966.532382522701 220.30356986919674 965.1892367721935 221.64671561970437 963.532382522701 221.64671561970437 C 961.8755282732086 221.64671561970437 960.532382522701 220.30356986919674 960.532382522701 218.64671561970437 C 960.532382522701 216.989861370212 961.8755282732086 215.64671561970437 963.532382522701 215.64671561970437 C 965.1892367721935 215.64671561970437 966.532382522701 216.989861370212 966.532382522701 218.64671561970437 Z"
         fill-opacity="1"
         id="path17" />
      <g
         transform="scale(19,19)"
         id="g19">
        <g
           transform="translate(51,12.99878947368421)"
           id="g18">
          <path
             fill="rgb(0,0,0)"
             stroke="none"
             paint-order="stroke fill markers"
             d=" M 0.665 -0.681 L 0.665 -0.444 Q 0.665 -0.423 0.659 -0.421 L 0.659 -0.421 Q 0.656 -0.42 0.649 -0.42 Q 0.636 -0.42 0.634 -0.429 Q 0.634 -0.431 0.633 -0.437 Q 0.614 -0.5760000000000001 0.525 -0.639 Q 0.47500000000000003 -0.674 0.41500000000000004 -0.674 Q 0.329 -0.674 0.262 -0.618 Q 0.246 -0.604 0.232 -0.588 L 0.231 -0.587 Q 0.159 -0.5 0.159 -0.341 Q 0.159 -0.111 0.306 -0.036000000000000004 Q 0.36 -0.009000000000000001 0.41600000000000004 -0.009000000000000001 Q 0.513 -0.009000000000000001 0.578 -0.08 Q 0.635 -0.14200000000000002 0.64 -0.234 Q 0.641 -0.249 0.652 -0.25 Q 0.665 -0.25 0.665 -0.233 Q 0.665 -0.14 0.598 -0.065 Q 0.521 0.022 0.404 0.022 Q 0.269 0.022 0.169 -0.074 Q 0.064 -0.17400000000000002 0.057 -0.322 Q 0.056 -0.332 0.056 -0.342 Q 0.056 -0.49 0.156 -0.596 Q 0.251 -0.6970000000000001 0.384 -0.704 Q 0.394 -0.705 0.404 -0.705 Q 0.496 -0.705 0.5710000000000001 -0.636 L 0.588 -0.619 L 0.638 -0.6930000000000001 Q 0.646 -0.705 0.654 -0.705 Q 0.664 -0.6960000000000001 0.665 -0.681 Z"
             id="path18" />
        </g>
      </g>
      <path
         fill="rgb(0,0,0)"
         stroke="none"
         paint-order="stroke fill markers"
         d=" M 926.2293606942251 716.6973680717774 C 926.2293606942251 718.3542223212698 924.8862149437175 719.6973680717774 923.2293606942251 719.6973680717774 C 921.5725064447327 719.6973680717774 920.2293606942251 718.3542223212698 920.2293606942251 716.6973680717774 C 920.2293606942251 715.040513822285 921.5725064447327 713.6973680717774 923.2293606942251 713.6973680717774 C 924.8862149437175 713.6973680717774 926.2293606942251 715.040513822285 926.2293606942251 716.6973680717774 Z"
         fill-opacity="1"
         id="path19" />
      <g
         transform="scale(19,19)"
         id="g21">
        <g
           transform="translate(46.78947368421053,37.99878947368421)"
           id="g20">
          <path
             fill="rgb(0,0,0)"
             stroke="none"
             paint-order="stroke fill markers"
             d=" M 0.222 -0.366 L 0.367 -0.366 Q 0.464 -0.366 0.507 -0.441 Q 0.527 -0.47600000000000003 0.527 -0.514 Q 0.527 -0.5750000000000001 0.485 -0.617 Q 0.45 -0.652 0.395 -0.652 L 0.271 -0.652 Q 0.232 -0.652 0.225 -0.64 L 0.225 -0.639 L 0.225 -0.639 L 0.225 -0.638 Q 0.222 -0.632 0.222 -0.612 L 0.222 -0.366 M 0.458 -0.357 L 0.458 -0.357 Q 0.56 -0.34600000000000003 0.616 -0.277 Q 0.651 -0.234 0.651 -0.183 Q 0.651 -0.10400000000000001 0.581 -0.05 Q 0.518 0 0.428 0 L 0.036000000000000004 0 L 0.036000000000000004 -0.031 L 0.06 -0.031 Q 0.125 -0.031 0.135 -0.048 Q 0.139 -0.055 0.139 -0.078 L 0.139 -0.605 Q 0.139 -0.635 0.127 -0.643 Q 0.113 -0.652 0.06 -0.652 L 0.036000000000000004 -0.652 L 0.036000000000000004 -0.683 L 0.402 -0.683 Q 0.513 -0.683 0.58 -0.615 Q 0.624 -0.5690000000000001 0.624 -0.514 Q 0.624 -0.441 0.549 -0.393 Q 0.509 -0.367 0.458 -0.357 M 0.396 -0.031 Q 0.486 -0.031 0.529 -0.105 Q 0.551 -0.14200000000000002 0.551 -0.184 Q 0.551 -0.256 0.505 -0.304 Q 0.468 -0.34400000000000003 0.41000000000000003 -0.34400000000000003 L 0.222 -0.34400000000000003 L 0.222 -0.07100000000000001 Q 0.222 -0.041 0.233 -0.036000000000000004 L 0.234 -0.036000000000000004 Q 0.243 -0.031 0.271 -0.031 L 0.396 -0.031 Z"
             id="path20" />
        </g>
      </g>
    </g>
  </g>
</svg>
